name rise30.3154peak39.0474fall46.5389.mot
datacolumns 19
datarows 23
range 8.70664100000000 8.74330000000000
endheader
time	ground_force1_vx	ground_force1_vy	ground_force1_vz	ground_force1_px	ground_force1_py	ground_force1_pz	ground_force2_vx	ground_force2_vy	ground_force2_vz	ground_force2_px	ground_force2_py	ground_force2_pz	ground_torque1_x	ground_torque1_y	ground_torque1_z	ground_torque2_x	ground_torque2_y	ground_torque2_z	
8.70664100000000	-48.68462500000000	792.53959599999996	58.19457600000000	0.14626000000000	0.00000000000000	0.14257000000000	-4.10554400000000	16.41501900000000	2.76621200000000	0.00000000000000	0.00000000000000	0.00000000000000	0.00000000000000	30.88171100000000	0.00000000000000	0.00000000000000	0.87134100000000	0.00000000000000	
8.70830400000000	-49.17706200000000	791.33226000000002	58.10904900000000	0.14505700000000	0.00000000000000	0.14249700000000	-5.18353000000000	22.20611200000000	3.59921100000000	0.00000000000000	0.00000000000000	0.00000000000000	0.00000000000000	30.82484400000000	0.00000000000000	0.00000000000000	1.14848100000000	0.00000000000000	
8.70997000000000	-49.67265100000000	790.01593800000001	58.00980500000000	0.14386600000000	0.00000000000000	0.14242100000000	-6.27545900000000	28.59533600000000	4.47915600000000	0.28332600000000	0.00000000000000	-0.07987100000000	0.00000000000000	30.76592600000000	0.00000000000000	0.00000000000000	2.21364400000000	0.00000000000000	
8.71163300000000	-50.17150900000000	788.58848499999999	57.89641000000000	0.14269000000000	0.00000000000000	0.14234200000000	-7.33997700000000	35.46837000000000	5.38104700000000	0.29238200000000	0.00000000000000	-0.08014100000000	0.00000000000000	30.70513200000000	0.00000000000000	0.00000000000000	2.74103700000000	0.00000000000000	
8.71330000000000	-50.67373600000000	787.04774799999996	57.76844900000000	0.14153100000000	0.00000000000000	0.14225900000000	-8.33658400000000	42.70058200000000	6.27931500000000	0.30065600000000	0.00000000000000	-0.08035700000000	0.00000000000000	30.64263300000000	0.00000000000000	0.00000000000000	3.28922100000000	0.00000000000000	
8.71496800000000	-51.17941600000000	785.39156600000001	57.62552500000000	0.14039100000000	0.00000000000000	0.14217300000000	-9.22855400000000	50.16745500000000	7.14970200000000	0.30828900000000	0.00000000000000	-0.08053000000000	0.00000000000000	30.57859500000000	0.00000000000000	0.00000000000000	3.84515500000000	0.00000000000000	
8.71663300000000	-51.68861200000000	783.61777199999995	57.46726400000000	0.13927400000000	0.00000000000000	0.14208300000000	-9.98531900000000	57.75409900000000	7.97088700000000	0.31538900000000	0.00000000000000	-0.08067000000000	0.00000000000000	30.51317500000000	0.00000000000000	0.00000000000000	4.39653700000000	0.00000000000000	
8.71830600000000	-52.20136300000000	781.72419200000002	57.29331200000000	0.13818000000000	0.00000000000000	0.14198900000000	-10.58408200000000	65.36280400000000	8.72567500000000	0.32203700000000	0.00000000000000	-0.08078300000000	0.00000000000000	30.44652300000000	0.00000000000000	0.00000000000000	4.93257100000000	0.00000000000000	
8.71997000000000	-52.71768700000000	779.70864600000004	57.10333900000000	0.13711300000000	0.00000000000000	0.14189200000000	-11.01058800000000	72.91809499999999	9.40168800000000	0.32829700000000	0.00000000000000	-0.08087500000000	0.00000000000000	30.37877900000000	0.00000000000000	0.00000000000000	5.44451500000000	0.00000000000000	
8.72163300000000	-53.23757300000000	777.56895499999996	56.89703500000000	0.13607300000000	0.00000000000000	0.14179000000000	-11.25908700000000	80.36916600000001	9.99154600000000	0.33422000000000	0.00000000000000	-0.08095100000000	0.00000000000000	30.31006900000000	0.00000000000000	0.00000000000000	5.92598000000000	0.00000000000000	
8.72330400000000	-53.76098100000000	775.30293400000005	56.67411900000000	0.13506400000000	0.00000000000000	0.14168500000000	-11.33159900000000	87.68987799999999	10.49262200000000	0.33984500000000	0.00000000000000	-0.08101300000000	0.00000000000000	30.24051100000000	0.00000000000000	0.00000000000000	6.37298400000000	0.00000000000000	
8.72496600000000	-54.28783900000000	772.90840400000002	56.43433300000000	0.13408600000000	0.00000000000000	0.14157500000000	-11.23668500000000	94.87673100000001	10.90644300000000	0.34520500000000	0.00000000000000	-0.08106600000000	0.00000000000000	30.17020400000000	0.00000000000000	0.00000000000000	6.78380100000000	0.00000000000000	
8.72663700000000	-54.81804300000000	770.38319000000001	56.17744200000000	0.13314200000000	0.00000000000000	0.14146100000000	-10.98788900000000	101.94532500000000	11.23785200000000	0.35032700000000	0.00000000000000	-0.08111000000000	0.00000000000000	30.09923600000000	0.00000000000000	0.00000000000000	7.15864700000000	0.00000000000000	
8.72830100000000	-55.35144900000000	767.72512300000005	55.90324300000000	0.13223200000000	0.00000000000000	0.14134200000000	-10.60203600000000	108.92587200000000	11.49405200000000	0.35523100000000	0.00000000000000	-0.08115000000000	0.00000000000000	30.02767600000000	0.00000000000000	0.00000000000000	7.49925300000000	0.00000000000000	
8.72997300000000	-55.88787600000000	764.93204900000001	55.61155300000000	0.13135900000000	0.00000000000000	0.14121900000000	-10.09757500000000	115.85828700000000	11.68361900000000	0.35993600000000	0.00000000000000	-0.08118500000000	0.00000000000000	29.95557800000000	0.00000000000000	0.00000000000000	7.80838900000000	0.00000000000000	
8.73164000000000	-56.42709900000000	762.00182900000004	55.30222200000000	0.13052400000000	0.00000000000000	0.14109200000000	-9.49306400000000	122.78734600000000	11.81557700000000	0.36445700000000	0.00000000000000	-0.08121700000000	0.00000000000000	29.88297400000000	0.00000000000000	0.00000000000000	8.08938000000000	0.00000000000000	
8.73330500000000	-56.96885000000000	758.93234500000005	54.97512600000000	0.12972700000000	0.00000000000000	0.14096000000000	-8.80591500000000	129.75826900000001	11.89860100000000	0.36880600000000	0.00000000000000	-0.08124800000000	0.00000000000000	29.80988100000000	0.00000000000000	0.00000000000000	8.34565400000000	0.00000000000000	
8.73496700000000	-57.51281300000000	755.72150399999998	54.63016600000000	0.12896900000000	0.00000000000000	0.14082400000000	-8.05144500000000	136.81301900000000	11.94038000000000	0.37299300000000	0.00000000000000	-0.08127800000000	0.00000000000000	29.73629400000000	0.00000000000000	0.00000000000000	8.58036600000000	0.00000000000000	
8.73663800000000	-58.05862200000000	752.36724500000003	54.26727600000000	0.12825200000000	0.00000000000000	0.14068400000000	-7.24224800000000	143.98746499999999	11.94717100000000	0.37702700000000	0.00000000000000	-0.08130900000000	0.00000000000000	29.66218600000000	0.00000000000000	0.00000000000000	8.79609300000000	0.00000000000000	
8.73830700000000	-58.60585800000000	748.86754099999996	53.88641500000000	0.12757600000000	0.00000000000000	0.14053800000000	-6.38789200000000	151.30947300000000	11.92353700000000	0.38091600000000	0.00000000000000	-0.08134100000000	0.00000000000000	29.58750900000000	0.00000000000000	0.00000000000000	8.99463900000000	0.00000000000000	
8.73997200000000	-59.15404700000000	745.22041000000002	53.48757400000000	0.12694200000000	0.00000000000000	0.14038900000000	-5.49489600000000	158.79792000000000	11.87226500000000	0.38466600000000	0.00000000000000	-0.08137500000000	0.00000000000000	29.51219500000000	0.00000000000000	0.00000000000000	9.17692900000000	0.00000000000000	
8.74163500000000	-59.70265900000000	741.42391299999997	53.07077000000000	0.12634900000000	0.00000000000000	0.14023400000000	-4.56694100000000	166.46251400000000	11.79442500000000	0.38828300000000	0.00000000000000	-0.08141100000000	0.00000000000000	29.43615100000000	0.00000000000000	0.00000000000000	9.34298500000000	0.00000000000000	
8.74330000000000	-60.25110400000000	737.47617000000002	52.63605000000000	0.12579800000000	0.00000000000000	0.14007600000000	-3.60525500000000	174.30430400000000	11.68956100000000	0.39177000000000	0.00000000000000	-0.08145100000000	0.00000000000000	29.35926300000000	0.00000000000000	0.00000000000000	9.49199100000000	0.00000000000000	
